<svg width="75" height="76" viewBox="0 0 75 76" fill="none" xmlns="http://www.w3.org/2000/svg">
<rect y="28" width="75" height="5.52632" fill="#D9D9D9"/>
<rect y="39.8421" width="75" height="5.52632" fill="#D9D9D9"/>
<rect y="52.4737" width="75" height="5.52632" fill="#D9D9D9"/>
<rect x="5.65863" y="65.0448" width="75.8917" height="5.52632" transform="rotate(-38.7726 5.65863 65.0448)" fill="#D9D9D9"/>
<path d="M8.19844 8.465H13.6134V9.755H8.19844V8.465ZM8.34844 14H6.84844V3.5H14.2584V4.805H8.34844V14ZM17.7349 8.03H23.1349V9.305H17.7349V8.03ZM17.8699 12.695H23.9899V14H16.3699V3.5H23.7799V4.805H17.8699V12.695ZM31.0991 14.12C30.2991 14.12 29.5591 13.99 28.8791 13.73C28.2091 13.46 27.6241 13.085 27.1241 12.605C26.6341 12.115 26.2491 11.545 25.9691 10.895C25.6891 10.245 25.5491 9.53 25.5491 8.75C25.5491 7.97 25.6891 7.255 25.9691 6.605C26.2491 5.955 26.6391 5.39 27.1391 4.91C27.6391 4.42 28.2241 4.045 28.8941 3.785C29.5741 3.515 30.3141 3.38 31.1141 3.38C31.9241 3.38 32.6691 3.52 33.3491 3.8C34.0391 4.07 34.6241 4.475 35.1041 5.015L34.1291 5.96C33.7291 5.54 33.2791 5.23 32.7791 5.03C32.2791 4.82 31.7441 4.715 31.1741 4.715C30.5841 4.715 30.0341 4.815 29.5241 5.015C29.0241 5.215 28.5891 5.495 28.2191 5.855C27.8491 6.215 27.5591 6.645 27.3491 7.145C27.1491 7.635 27.0491 8.17 27.0491 8.75C27.0491 9.33 27.1491 9.87 27.3491 10.37C27.5591 10.86 27.8491 11.285 28.2191 11.645C28.5891 12.005 29.0241 12.285 29.5241 12.485C30.0341 12.685 30.5841 12.785 31.1741 12.785C31.7441 12.785 32.2791 12.685 32.7791 12.485C33.2791 12.275 33.7291 11.955 34.1291 11.525L35.1041 12.47C34.6241 13.01 34.0391 13.42 33.3491 13.7C32.6691 13.98 31.9191 14.12 31.0991 14.12ZM44.7739 3.5H46.2739V14H44.7739V3.5ZM38.7439 14H37.2439V3.5H38.7439V14ZM44.9089 9.32H38.5939V8.015H44.9089V9.32ZM47.8268 14L52.5818 3.5H54.0668L58.8368 14H57.2618L53.0168 4.34H53.6168L49.3718 14H47.8268ZM49.8518 11.375L50.2568 10.175H56.1668L56.6018 11.375H49.8518ZM60.4031 14V3.5H64.4981C65.4181 3.5 66.2031 3.645 66.8531 3.935C67.5031 4.225 68.0031 4.645 68.3531 5.195C68.7031 5.745 68.8781 6.4 68.8781 7.16C68.8781 7.92 68.7031 8.575 68.3531 9.125C68.0031 9.665 67.5031 10.08 66.8531 10.37C66.2031 10.66 65.4181 10.805 64.4981 10.805H61.2281L61.9031 10.115V14H60.4031ZM67.4231 14L64.7531 10.19H66.3581L69.0581 14H67.4231ZM61.9031 10.265L61.2281 9.53H64.4531C65.4131 9.53 66.1381 9.325 66.6281 8.915C67.1281 8.495 67.3781 7.91 67.3781 7.16C67.3781 6.41 67.1281 5.83 66.6281 5.42C66.1381 5.01 65.4131 4.805 64.4531 4.805H61.2281L61.9031 4.055V10.265Z" fill="white"/>
</svg>
