<svg width="75" height="58" viewBox="0 0 75 58" fill="none" xmlns="http://www.w3.org/2000/svg">
<rect y="28" width="75" height="5.52632" fill="#D9D9D9"/>
<rect y="39.8421" width="75" height="5.52632" fill="#D9D9D9"/>
<rect y="52.4737" width="75" height="5.52632" fill="#D9D9D9"/>
<path d="M14.8685 14V3.5H16.0985L20.8085 11.435H20.1485L24.7985 3.5H26.0285L26.0435 14H24.6035L24.5885 5.765H24.9335L20.7935 12.725H20.1035L15.9335 5.765H16.3085V14H14.8685ZM30.5596 8.03H35.9596V9.305H30.5596V8.03ZM30.6946 12.695H36.8146V14H29.1946V3.5H36.6046V4.805H30.6946V12.695ZM39.2435 14V3.5H40.4735L47.4185 12.125H46.7735V3.5H48.2735V14H47.0435L40.0985 5.375H40.7435V14H39.2435ZM55.7663 14.12C54.3863 14.12 53.3013 13.725 52.5113 12.935C51.7213 12.145 51.3263 10.99 51.3263 9.47V3.5H52.8263V9.41C52.8263 10.58 53.0813 11.435 53.5913 11.975C54.1113 12.515 54.8413 12.785 55.7813 12.785C56.7313 12.785 57.4613 12.515 57.9713 11.975C58.4913 11.435 58.7513 10.58 58.7513 9.41V3.5H60.2063V9.47C60.2063 10.99 59.8113 12.145 59.0213 12.935C58.2413 13.725 57.1563 14.12 55.7663 14.12Z" fill="white"/>
</svg>
